<?xml version="1.0" encoding="utf-8"?>
<!-- Generator: Adobe Illustrator 26.0.1, SVG Export Plug-In . SVG Version: 6.00 Build 0)  -->
<svg version="1.1" id="Layer_1" xmlns="http://www.w3.org/2000/svg" xmlns:xlink="http://www.w3.org/1999/xlink" x="0px" y="0px"
	 viewBox="0 0 200 200" style="enable-background:new 0 0 200 200;" xml:space="preserve">
<style type="text/css">
	.st0{font-family:'Noteworthy-Light';}
	.st1{font-size:25px;}
</style>
<path d="M102.5,172.8l-8.1-52.2l-11.3,18.1H13.4v-9.4h64.4L99.7,94l8.1,53.4l22.2-32.8l10.6,14.7h46.2v9.4h-50.9l-5.6-7.8
	L102.5,172.8z M102.5,67.8c-11.2,0-20.3-9.1-20.3-20.3s9.1-20.3,20.3-20.3s20.3,9.1,20.3,20.3S113.4,67.8,102.5,67.8z M102.5,36.6
	c-5.9,0-10.9,5-10.9,10.9s5,10.9,10.9,10.9s10.9-5,10.9-10.9S108.4,36.6,102.5,36.6z"/>
<path d="M135.3,97.5h-9.4v-4.7c0-6.9-5.6-12.5-12.5-12.5H91.6c-6.9,0-12.5,5.6-12.5,12.5v4.7h-9.4v-4.7c0-12.2,9.7-21.9,21.9-21.9
	h21.9c12.2,0,21.9,9.7,21.9,21.9L135.3,97.5L135.3,97.5z M132.8,73.4h-4.7V64h4.7c4.4,0,7.8-3.4,7.8-7.8s-3.4-7.8-7.8-7.8h-4.7V39
	h4.7c9.4,0,17.2,7.8,17.2,17.2S142.5,73.4,132.8,73.4z"/>
<path d="M160.3,100.3h-9.4v-4.7c0-5-4.1-9.1-9.1-9.1h-15.9v-9.4h15.9c10.3,0,18.4,8.1,18.4,18.4v4.8H160.3z"/>
<path d="M76.6,73.4h-4.7c-9.4,0-17.2-7.8-17.2-17.2S62.5,39,71.9,39h4.7v9.4h-4.7c-4.4,0-7.8,3.4-7.8,7.8s3.4,7.8,7.8,7.8h4.7V73.4z
	 M54.1,100.3h-9.4v-4.7c0-10.3,8.1-18.4,18.4-18.4H79v9.4H63.1c-5,0-9.1,4.1-9.1,9.1L54.1,100.3L54.1,100.3z"/>
<text transform="matrix(1 0 0 1 36.7039 20.0972)" class="st0 st1">Angry Nerds</text>
</svg>
